<svg viewBox="-11.62 -75.80 58.06 39.62" xmlns="http://www.w3.org/2000/svg"><path data-name="France" d="M6.19,-57.08 6.66,-56.68 8.10,-56.40 7.59,-55.36 7.47,-54.29 7.19,-54.04 6.74,-54.18 6.77,-53.80 6.04,-52.98 6.02,-52.32 6.50,-52.55 6.84,-51.91 6.80,-51.51 7.10,-50.97 6.75,-50.54 7.01,-49.45 7.55,-49.27 7.44,-48.67 6.53,-47.89 4.56,-48.27 3.10,-47.82 2.99,-47.00 1.83,-46.83 0.70,-47.44 0.34,-47.15 -1.50,-47.76 -1.90,-48.30 -1.38,-49.13 -1.19,-51.95 -2.23,-53.47 -2.96,-54.22 -4.49,-54.79 -4.59,-55.89 -3.30,-56.22 -1.62,-55.83 -1.93,-57.56 -0.99,-56.90 1.34,-58.11 1.64,-59.40 2.51,-59.72 2.66,-59.16 3.12,-59.13 3.59,-58.50 4.29,-57.76 4.80,-57.89 5.67,-57.18 5.90,-57.05 6.19,-57.08ZM8.75,-47.21 9.39,-47.73 9.56,-46.57 9.23,-45.53 8.78,-45.80 8.54,-46.71 8.75,-47.21Z"/><path data-name="Belarus" d="M28.18,-68.20 29.23,-67.75 29.37,-67.31 29.90,-67.52 30.87,-67.10 30.97,-66.28 30.76,-65.81 31.38,-64.68 31.79,-64.37 31.73,-64.06 32.41,-63.76 32.69,-63.32 32.30,-62.95 31.50,-63.01 31.31,-62.85 31.54,-62.30 31.79,-61.25 31.79,-61.25 30.93,-61.16 30.62,-60.80 30.56,-59.99 30.16,-60.14 29.25,-60.07 28.99,-60.44 28.62,-60.16 28.24,-60.40 27.45,-60.43 26.34,-60.81 25.33,-60.94 24.55,-60.91 24.01,-60.47 23.53,-60.41 23.51,-61.12 23.20,-61.88 23.80,-62.22 23.80,-62.88 23.53,-63.51 23.48,-64.26 24.45,-64.25 25.54,-64.89 25.77,-65.87 26.59,-66.42 26.49,-67.21 27.10,-67.51 28.18,-68.20Z"/><path data-name="Ukraine" d="M31.79,-61.25 32.16,-61.19 32.41,-61.56 32.72,-61.47 33.75,-61.63 34.39,-60.71 34.14,-60.39 34.22,-59.89 35.02,-59.81 35.38,-59.12 35.36,-58.81 36.63,-58.26 37.39,-58.51 38.01,-57.78 38.59,-57.79 40.07,-57.29 40.08,-56.84 39.67,-56.04 39.90,-55.21 39.74,-54.71 38.77,-54.60 38.26,-54.18 38.22,-53.53 37.43,-53.41 36.76,-52.94 35.82,-52.86 34.96,-52.32 35.01,-51.55 34.86,-51.59 34.73,-51.88 34.41,-51.93 33.70,-52.24 33.44,-51.89 33.30,-52.04 31.74,-52.41 31.68,-52.95 30.75,-52.77 30.38,-51.97 29.60,-50.91 29.15,-51.16 28.68,-50.93 28.23,-51.19 28.49,-51.35 28.66,-51.84 28.93,-52.30 28.86,-52.56 29.07,-52.67 29.17,-52.47 29.76,-52.43 30.02,-52.54 29.84,-52.69 29.91,-52.90 29.56,-53.27 29.42,-53.89 29.05,-54.13 29.12,-54.63 28.67,-55.04 28.26,-55.09 27.52,-55.56 26.86,-55.41 26.62,-55.19 26.20,-55.19 25.95,-54.84 25.21,-54.70 24.87,-54.47 24.40,-54.83 23.76,-54.84 23.14,-55.00 22.71,-54.68 22.64,-55.08 22.09,-55.49 22.28,-56.10 22.56,-56.50 22.78,-56.41 22.52,-57.10 23.43,-58.39 23.92,-58.57 24.03,-59.01 23.53,-60.41 24.01,-60.47 24.55,-60.91 25.33,-60.94 26.34,-60.81 27.45,-60.43 28.24,-60.40 28.62,-60.16 28.99,-60.44 29.25,-60.07 30.16,-60.14 30.56,-59.99 30.62,-60.80 30.93,-61.16 31.79,-61.25Z"/><path data-name="Poland" d="M23.48,-64.26 23.53,-63.51 23.80,-62.88 23.80,-62.22 23.20,-61.88 23.51,-61.12 23.53,-60.41 24.03,-59.01 23.92,-58.57 23.43,-58.39 22.52,-57.10 22.78,-56.41 22.56,-56.50 21.61,-57.09 20.89,-56.87 20.42,-57.03 19.83,-56.70 19.32,-57.24 18.91,-57.04 18.85,-57.13 18.39,-57.89 17.65,-57.98 17.55,-58.47 16.87,-58.65 16.72,-58.24 16.18,-58.57 16.24,-59.00 15.49,-59.14 15.02,-59.65 14.61,-60.67 14.69,-61.23 14.44,-62.11 14.07,-62.70 14.35,-63.14 14.12,-64.00 14.80,-64.50 16.36,-65.29 17.62,-65.87 18.62,-65.58 18.70,-65.16 19.66,-65.14 20.89,-64.94 22.73,-64.97 23.24,-64.79 23.48,-64.26Z"/><path data-name="Austria" d="M16.98,-55.04 16.90,-54.43 16.34,-54.43 16.53,-54.11 16.20,-53.16 16.01,-52.92 15.14,-52.88 14.63,-52.55 13.81,-52.66 12.38,-53.04 12.15,-53.55 11.16,-53.29 11.05,-53.01 10.44,-53.22 9.93,-53.26 9.48,-53.53 9.63,-53.89 9.59,-54.15 9.90,-54.23 10.40,-53.82 10.54,-54.21 11.43,-54.15 12.14,-54.42 12.62,-54.37 12.93,-54.07 13.03,-54.32 12.88,-55.29 13.24,-55.48 13.60,-56.18 14.34,-55.69 14.90,-56.31 15.25,-56.43 16.03,-55.96 16.50,-56.04 16.96,-55.76 16.88,-55.56 16.98,-55.04Z"/><path data-name="Hungary" d="M22.09,-55.49 22.64,-55.08 22.71,-54.68 22.10,-54.37 21.63,-53.37 21.02,-52.38 20.22,-52.11 19.60,-52.17 18.83,-51.79 18.83,-51.79 18.46,-51.58 17.63,-51.86 16.88,-52.48 16.56,-52.65 16.37,-53.15 16.20,-53.16 16.53,-54.11 16.34,-54.43 16.90,-54.43 16.98,-55.04 17.49,-54.66 17.86,-54.50 18.70,-54.68 18.78,-54.98 19.17,-55.03 19.66,-55.26 19.77,-55.16 20.24,-55.35 20.47,-55.70 20.80,-55.80 21.87,-55.34 22.09,-55.49Z"/><path data-name="Moldova" d="M26.62,-55.19 26.86,-55.41 27.52,-55.56 28.26,-55.09 28.67,-55.04 29.12,-54.63 29.05,-54.13 29.42,-53.89 29.56,-53.27 29.91,-52.90 29.84,-52.69 30.02,-52.54 29.76,-52.43 29.17,-52.47 29.07,-52.67 28.86,-52.56 28.93,-52.30 28.66,-51.84 28.49,-51.35 28.23,-51.19 28.05,-51.85 28.16,-52.46 28.13,-53.10 27.55,-53.97 27.23,-54.60 26.92,-55.04 26.62,-55.19Z"/><path data-name="Romania" d="M28.23,-51.19 28.68,-50.93 29.15,-51.16 29.60,-50.91 29.63,-50.55 29.14,-50.25 28.84,-50.38 28.56,-48.69 27.97,-48.84 27.24,-49.34 26.07,-49.02 25.57,-48.66 24.10,-48.74 23.33,-48.95 22.94,-48.85 22.66,-49.42 22.47,-49.67 22.71,-49.90 22.46,-50.08 22.15,-49.76 21.56,-50.17 21.48,-50.76 20.87,-51.09 20.76,-51.54 20.22,-52.11 21.02,-52.38 21.63,-53.37 22.10,-54.37 22.71,-54.68 23.14,-55.00 23.76,-54.84 24.40,-54.83 24.87,-54.47 25.21,-54.70 25.95,-54.84 26.20,-55.19 26.62,-55.19 26.92,-55.04 27.23,-54.60 27.55,-53.97 28.13,-53.10 28.16,-52.46 28.05,-51.85 28.23,-51.19Z"/><path data-name="Lithuania" d="M26.49,-67.21 26.59,-66.42 25.77,-65.87 25.54,-64.89 24.45,-64.25 23.48,-64.26 23.24,-64.79 22.73,-64.97 22.65,-65.41 22.76,-65.88 22.32,-66.16 21.27,-66.47 21.06,-67.95 22.20,-68.51 23.88,-68.39 24.86,-68.57 25.00,-68.19 25.53,-68.08 26.49,-67.21Z"/><path data-name="Latvia" d="M27.29,-70.59 27.77,-70.16 27.86,-69.27 28.18,-68.20 27.10,-67.51 26.49,-67.21 25.53,-68.08 25.00,-68.19 24.86,-68.57 23.88,-68.39 22.20,-68.51 21.06,-67.95 21.09,-69.31 21.58,-70.47 22.52,-71.11 23.32,-69.72 24.12,-69.76 24.31,-71.18 25.16,-71.52 25.60,-71.28 26.46,-70.59 27.29,-70.59Z"/><path data-name="Estonia" d="M27.98,-74.42 27.98,-74.42 28.13,-74.07 27.42,-72.95 27.72,-71.18 27.29,-70.59 26.46,-70.59 25.60,-71.28 25.16,-71.52 24.31,-71.18 24.43,-72.30 24.06,-72.06 23.43,-72.74 23.34,-73.85 24.60,-74.40 25.86,-74.68 26.95,-74.36 27.98,-74.42 27.98,-74.42Z"/><path data-name="Germany" d="M14.12,-64.00 14.35,-63.14 14.07,-62.70 14.44,-62.11 14.69,-61.23 14.61,-60.67 15.02,-59.65 14.57,-59.48 14.31,-59.67 14.06,-59.36 13.34,-59.06 12.97,-58.66 12.24,-58.32 12.42,-57.86 12.52,-57.21 13.03,-56.84 13.60,-56.18 13.24,-55.48 12.88,-55.29 13.03,-54.32 12.93,-54.07 12.62,-54.37 12.14,-54.42 11.43,-54.15 10.54,-54.21 10.40,-53.82 9.90,-54.23 9.59,-54.15 8.52,-54.61 8.32,-54.28 7.47,-54.29 7.59,-55.36 8.10,-56.40 6.66,-56.68 6.19,-57.08 6.24,-57.76 6.04,-58.11 6.16,-59.17 5.99,-60.85 6.59,-60.85 6.84,-61.46 7.09,-62.97 6.91,-63.54 7.10,-63.89 7.94,-63.98 8.12,-63.61 8.80,-64.45 8.57,-65.09 8.53,-66.07 9.28,-65.84 9.92,-66.10 9.94,-65.43 10.95,-65.03 10.94,-64.43 11.96,-64.75 12.52,-65.22 13.65,-64.54 14.12,-64.00Z"/><path data-name="Bulgaria" d="M22.66,-49.42 22.94,-48.85 23.33,-48.95 24.10,-48.74 25.57,-48.66 26.07,-49.02 27.24,-49.34 27.97,-48.84 28.56,-48.69 28.04,-48.12 27.67,-47.14 28.00,-46.37 27.14,-46.55 26.12,-46.13 26.11,-45.46 25.20,-45.34 24.49,-45.80 23.69,-45.44 22.95,-45.48 22.88,-46.36 22.38,-46.79 22.55,-46.98 22.44,-47.15 22.60,-47.58 22.99,-48.01 22.50,-48.60 22.41,-49.11 22.66,-49.42Z"/><path data-name="Greece" d="M26.29,-37.77 26.16,-37.41 24.72,-37.31 24.74,-37.51 23.51,-37.75 23.70,-38.27 24.25,-37.86 25.03,-37.92 25.77,-37.84 25.75,-37.62 26.29,-37.77ZM22.95,-45.48 23.69,-45.44 24.49,-45.80 25.20,-45.34 26.11,-45.46 26.12,-46.13 26.60,-45.77 26.29,-44.94 26.06,-44.79 25.45,-44.83 24.93,-44.96 23.71,-44.61 24.41,-43.87 23.90,-43.66 23.34,-43.66 22.81,-44.34 22.63,-44.05 22.85,-43.27 23.35,-42.66 22.97,-42.38 23.53,-41.79 24.03,-41.42 24.04,-40.70 23.12,-41.04 23.41,-40.39 22.77,-40.26 23.15,-39.16 22.49,-39.14 21.67,-39.68 21.30,-40.69 21.12,-41.53 20.73,-42.12 20.22,-42.85 20.15,-43.22 20.61,-43.86 20.67,-44.28 21.00,-44.47 21.02,-44.82 21.67,-44.94 22.06,-45.23 22.60,-45.20 22.76,-45.43 22.95,-45.48Z"/><path data-name="Turkey" d="M44.77,-40.09 44.29,-39.88 43.94,-40.20 42.78,-40.36 42.35,-40.17 41.21,-39.97 40.67,-39.99 39.52,-39.52 38.70,-39.52 38.17,-39.75 37.07,-39.41 36.74,-39.65 36.69,-38.95 36.42,-38.68 36.15,-38.41 35.78,-38.97 36.16,-39.44 35.55,-39.33 34.71,-39.62 34.03,-38.91 32.51,-38.77 31.70,-39.43 30.62,-39.47 30.39,-38.96 29.70,-38.81 28.73,-39.47 27.64,-39.45 27.05,-40.70 26.32,-41.40 26.80,-42.40 26.17,-43.01 27.28,-44.26 28.82,-44.31 29.24,-45.32 31.15,-45.14 32.35,-46.01 33.51,-46.39 35.17,-46.42 36.91,-45.47 38.35,-44.96 39.51,-45.16 40.37,-45.04 41.55,-45.74 42.62,-45.80 43.58,-45.15 43.75,-44.68 43.66,-44.04 44.40,-43.72 44.79,-43.34 44.11,-42.97 44.42,-41.50 44.23,-41.10 44.77,-40.09 44.77,-40.09ZM26.12,-46.13 27.14,-46.55 28.00,-46.37 28.12,-45.86 28.99,-45.42 28.81,-45.10 27.62,-45.03 27.19,-44.62 26.36,-43.91 26.04,-44.52 26.06,-44.79 26.29,-44.94 26.60,-45.77 26.12,-46.13Z"/><path data-name="Albania" d="M21.02,-44.82 21.00,-44.47 20.67,-44.28 20.61,-43.86 20.15,-43.22 19.98,-43.31 19.96,-43.60 19.41,-44.04 19.32,-44.67 19.40,-45.57 19.54,-45.99 19.37,-46.20 19.37,-46.20 19.30,-46.63 19.74,-47.29 19.80,-47.04 20.07,-47.16 20.28,-46.79 20.52,-46.66 20.59,-46.17 20.59,-46.17 20.46,-45.71 20.61,-45.14 21.02,-44.82Z"/><path data-name="Croatia" d="M16.56,-52.65 16.88,-52.48 17.63,-51.86 18.46,-51.58 18.83,-51.79 19.07,-51.24 19.39,-50.83 19.01,-50.30 18.55,-50.61 17.86,-50.59 17.00,-50.83 16.53,-50.80 16.32,-50.50 15.96,-50.83 15.75,-50.24 16.24,-49.59 16.46,-49.15 16.92,-48.64 17.30,-48.33 17.67,-47.76 18.56,-47.24 18.45,-47.01 18.45,-47.01 17.51,-47.51 16.93,-48.01 16.02,-48.41 15.17,-49.44 15.38,-49.54 14.92,-50.13 14.90,-50.61 14.26,-50.83 13.95,-50.22 13.66,-50.69 13.68,-51.19 13.72,-51.21 14.41,-51.16 14.60,-51.40 14.94,-51.17 15.33,-51.14 15.32,-51.54 15.67,-51.69 15.77,-52.27 16.56,-52.65Z"/><path data-name="Switzerland" d="M9.59,-54.15 9.63,-53.89 9.48,-53.53 9.93,-53.26 10.44,-53.22 10.36,-52.62 9.92,-52.38 9.18,-52.56 8.97,-51.98 8.49,-51.93 8.32,-52.16 7.76,-51.67 7.27,-51.61 6.84,-51.91 6.50,-52.55 6.02,-52.32 6.04,-52.98 6.77,-53.80 6.74,-54.18 7.19,-54.04 7.47,-54.29 8.32,-54.28 8.52,-54.61 9.59,-54.15Z"/><path data-name="Luxembourg" d="M6.04,-58.11 6.24,-57.76 6.19,-57.08 5.90,-57.05 5.67,-57.18 5.78,-58.05 6.04,-58.11Z"/><path data-name="Belgium" d="M6.16,-59.17 6.04,-58.11 5.78,-58.05 5.67,-57.18 4.80,-57.89 4.29,-57.76 3.59,-58.50 3.12,-59.13 2.66,-59.16 2.51,-59.72 3.31,-60.03 3.32,-60.03 3.31,-60.03 4.05,-59.91 4.97,-60.24 5.61,-59.54 6.16,-59.17Z"/><path data-name="Netherlands" d="M6.91,-63.54 7.09,-62.97 6.84,-61.46 6.59,-60.85 5.99,-60.85 6.16,-59.17 5.61,-59.54 4.97,-60.24 4.05,-59.91 3.31,-60.03 3.32,-60.03 3.83,-60.47 4.71,-62.88 6.07,-63.58 6.91,-63.54Z"/><path data-name="Portugal" d="M-9.03,-46.20 -8.67,-46.54 -8.26,-46.74 -8.01,-46.08 -7.42,-46.08 -7.25,-46.25 -6.67,-46.21 -6.39,-45.53 -6.85,-45.17 -6.86,-44.14 -7.03,-43.95 -7.07,-43.34 -7.50,-43.23 -7.10,-42.45 -7.37,-41.61 -7.03,-41.23 -7.17,-40.89 -7.54,-40.42 -7.45,-40.00 -7.86,-39.67 -8.38,-39.85 -8.90,-39.71 -8.75,-40.70 -8.84,-41.48 -9.29,-41.59 -9.53,-42.08 -9.45,-42.92 -9.05,-43.39 -8.98,-43.92 -8.77,-44.71 -8.79,-45.27 -8.99,-45.75 -9.03,-46.20Z"/><path data-name="Spain" d="M-7.45,-40.00 -7.54,-40.42 -7.17,-40.89 -7.03,-41.23 -7.37,-41.61 -7.10,-42.45 -7.50,-43.23 -7.07,-43.34 -7.03,-43.95 -6.86,-44.14 -6.85,-45.17 -6.39,-45.53 -6.67,-46.21 -7.25,-46.25 -7.42,-46.08 -8.01,-46.08 -8.26,-46.74 -8.67,-46.54 -9.03,-46.20 -8.98,-47.16 -9.39,-47.75 -7.98,-48.75 -6.75,-48.50 -5.41,-48.51 -4.35,-48.27 -3.52,-48.34 -1.90,-48.30 -1.50,-47.76 0.34,-47.15 0.70,-47.44 1.83,-46.83 2.99,-47.00 3.04,-46.22 2.09,-45.33 0.81,-45.05 0.72,-44.60 0.11,-43.87 -0.28,-42.82 0.11,-42.08 -0.47,-41.51 -0.68,-40.68 -1.44,-40.43 -2.15,-39.47 -3.42,-39.45 -4.37,-39.47 -5.00,-39.04 -5.38,-38.57 -5.87,-38.67 -6.24,-39.09 -6.52,-39.81 -7.45,-40.00Z"/><path data-name="Ireland" d="M-6.20,-64.19 -6.03,-62.98 -6.79,-61.51 -8.56,-60.55 -9.98,-60.80 -9.17,-62.50 -9.69,-64.21 -8.33,-65.55 -7.57,-66.36 -7.37,-65.43 -7.57,-64.51 -6.95,-64.54 -6.20,-64.19Z"/><path data-name="Italy" d="M10.44,-53.22 11.05,-53.01 11.16,-53.29 12.15,-53.55 12.38,-53.04 13.81,-52.66 13.70,-51.95 13.94,-51.34 13.14,-51.55 12.33,-51.04 12.38,-50.34 12.26,-49.94 12.59,-49.22 13.53,-48.53 14.03,-47.39 15.14,-46.30 15.93,-46.31 16.17,-46.01 15.89,-45.75 16.79,-45.26 17.52,-44.86 18.38,-44.18 18.48,-43.93 18.29,-43.46 17.74,-44.07 16.87,-44.29 16.45,-43.44 17.17,-42.96 17.05,-42.29 16.64,-42.21 16.10,-41.12 15.68,-41.02 15.69,-41.41 15.89,-42.10 16.11,-42.37 15.72,-43.12 15.41,-43.77 15.00,-43.94 14.70,-44.50 14.06,-44.74 13.63,-45.28 12.89,-45.36 12.11,-45.97 11.19,-46.84 10.51,-47.62 10.20,-48.99 9.70,-49.15 8.89,-49.61 8.43,-49.42 7.85,-48.77 7.44,-48.67 7.55,-49.27 7.01,-49.45 6.75,-50.54 7.10,-50.97 6.80,-51.51 6.84,-51.91 7.27,-51.61 7.76,-51.67 8.32,-52.16 8.49,-51.93 8.97,-51.98 9.18,-52.56 9.92,-52.38 10.36,-52.62 10.44,-53.22ZM14.76,-41.32 15.52,-41.43 15.16,-40.43 15.31,-40.05 15.10,-39.40 14.34,-39.87 13.83,-40.01 12.43,-40.65 12.57,-41.30 13.74,-41.18 14.76,-41.32ZM8.71,-44.89 9.21,-45.31 9.81,-44.37 9.67,-42.64 9.21,-42.73 8.81,-42.30 8.43,-42.64 8.39,-44.21 8.16,-44.96 8.71,-44.89Z"/><path data-name="Denmark" d="M9.92,-66.10 9.28,-65.84 8.53,-66.07 8.12,-67.04 8.09,-68.87 8.26,-69.36 8.54,-69.91 9.42,-70.03 9.78,-70.54 10.58,-71.06 10.55,-70.11 10.25,-69.51 10.37,-69.00 10.91,-68.72 10.67,-68.04 10.37,-68.24 9.65,-66.96 9.92,-66.10ZM12.37,-68.10 12.69,-67.20 12.09,-65.78 11.04,-66.77 10.90,-67.51 12.37,-68.10Z"/><path data-name="United Kingdom" d="M-6.20,-64.19 -6.95,-64.54 -7.57,-64.51 -7.37,-65.43 -7.57,-66.36 -6.73,-66.43 -5.66,-65.36 -6.20,-64.19ZM-3.09,-63.40 -3.09,-63.40 -2.95,-64.39 -3.61,-65.44 -3.63,-65.46 -4.84,-65.77 -5.08,-66.24 -4.72,-67.02 -5.05,-67.51 -5.59,-66.68 -5.64,-68.39 -6.15,-69.32 -5.79,-71.23 -5.01,-72.77 -4.21,-72.62 -3.01,-72.78 -4.07,-70.73 -3.06,-70.99 -1.96,-70.98 -2.22,-69.47 -3.12,-67.85 -2.09,-67.74 -2.01,-67.55 -1.11,-65.48 -0.43,-65.21 0.18,-63.27 0.47,-62.61 1.68,-62.30 1.56,-61.25 1.05,-60.77 1.45,-59.94 0.55,-59.11 -0.79,-59.12 -2.49,-58.69 -2.96,-59.00 -3.62,-58.26 -4.54,-58.44 -5.25,-57.85 -5.78,-58.16 -4.31,-59.81 -3.41,-60.16 -3.42,-60.16 -4.98,-60.43 -5.27,-61.07 -4.22,-61.58 -4.77,-62.46 -4.58,-63.56 -3.09,-63.40Z"/><path data-name="Slovenia" d="M13.81,-52.66 14.63,-52.55 15.14,-52.88 16.01,-52.92 16.20,-53.16 16.37,-53.15 16.56,-52.65 15.77,-52.27 15.67,-51.69 15.32,-51.54 15.33,-51.14 14.94,-51.17 14.60,-51.40 14.41,-51.16 13.72,-51.21 13.94,-51.34 13.70,-51.95 13.81,-52.66Z"/><path data-name="Slovakia" d="M22.56,-56.50 22.28,-56.10 22.09,-55.49 21.87,-55.34 20.80,-55.80 20.47,-55.70 20.24,-55.35 19.77,-55.16 19.66,-55.26 19.17,-55.03 18.78,-54.98 18.70,-54.68 17.86,-54.50 17.49,-54.66 16.98,-55.04 16.88,-55.56 16.96,-55.76 17.10,-56.09 17.55,-56.06 17.89,-56.22 17.91,-56.36 18.10,-56.44 18.17,-56.78 18.40,-56.85 18.55,-57.13 18.85,-57.13 18.91,-57.04 19.32,-57.24 19.83,-56.70 20.42,-57.03 20.89,-56.87 21.61,-57.09 22.56,-56.50Z"/><path data-name="Czechia" d="M15.02,-59.65 15.49,-59.14 16.24,-59.00 16.18,-58.57 16.72,-58.24 16.87,-58.65 17.55,-58.47 17.65,-57.98 18.39,-57.89 18.85,-57.13 18.55,-57.13 18.40,-56.85 18.17,-56.78 18.10,-56.44 17.91,-56.36 17.89,-56.22 17.55,-56.06 17.10,-56.09 16.96,-55.76 16.50,-56.04 16.03,-55.96 15.25,-56.43 14.90,-56.31 14.34,-55.69 13.60,-56.18 13.03,-56.84 12.52,-57.21 12.42,-57.86 12.24,-58.32 12.97,-58.66 13.34,-59.06 14.06,-59.36 14.31,-59.67 14.57,-59.48 15.02,-59.65Z"/><path data-name="Bosnia and Herz." d="M18.56,-47.24 17.67,-47.76 17.30,-48.33 16.92,-48.64 16.46,-49.15 16.24,-49.59 15.75,-50.24 15.96,-50.83 16.32,-50.50 16.53,-50.80 17.00,-50.83 17.86,-50.59 18.55,-50.61 19.01,-50.30 19.01,-50.30 19.37,-50.31 19.12,-49.69 19.60,-49.15 19.45,-48.50 19.22,-48.44 19.03,-48.31 18.71,-47.99 18.56,-47.24Z"/><path data-name="North Macedonia" d="M22.38,-46.79 22.88,-46.36 22.95,-45.48 22.76,-45.43 22.60,-45.20 22.06,-45.23 21.67,-44.94 21.02,-44.82 20.61,-45.14 20.46,-45.71 20.59,-46.17 20.59,-46.17 20.72,-46.16 20.76,-46.43 21.35,-46.64 21.58,-46.69 21.92,-46.77 22.38,-46.79Z"/><path data-name="Serbia" d="M18.83,-51.79 18.83,-51.79 19.60,-52.17 20.22,-52.11 20.76,-51.54 20.87,-51.09 21.48,-50.76 21.56,-50.17 22.15,-49.76 22.46,-50.08 22.71,-49.90 22.47,-49.67 22.66,-49.42 22.41,-49.11 22.50,-48.60 22.99,-48.01 22.60,-47.58 22.44,-47.15 22.55,-46.98 22.38,-46.79 21.92,-46.77 21.58,-46.69 21.54,-46.79 21.66,-46.95 21.78,-47.29 21.63,-47.28 21.44,-47.53 21.27,-47.59 21.14,-47.81 20.96,-47.90 20.81,-48.09 20.64,-48.02 20.50,-47.56 20.26,-47.46 20.34,-47.58 19.96,-47.86 19.63,-48.01 19.48,-48.20 19.22,-48.44 19.45,-48.50 19.60,-49.15 19.12,-49.69 19.37,-50.31 19.01,-50.30 19.01,-50.30 19.39,-50.83 19.07,-51.24 18.83,-51.79Z"/><path data-name="Montenegro" d="M20.07,-47.16 19.80,-47.04 19.74,-47.29 19.30,-46.63 19.37,-46.20 19.16,-46.30 18.88,-46.74 18.45,-47.01 18.56,-47.24 18.71,-47.99 19.03,-48.31 19.22,-48.44 19.48,-48.20 19.63,-48.01 19.96,-47.86 20.34,-47.58 20.26,-47.46 20.07,-47.16Z"/><path data-name="Kosovo" d="M20.59,-46.17 20.52,-46.66 20.28,-46.79 20.07,-47.16 20.26,-47.46 20.50,-47.56 20.64,-48.02 20.81,-48.09 20.96,-47.90 21.14,-47.81 21.27,-47.59 21.44,-47.53 21.63,-47.28 21.78,-47.29 21.66,-46.95 21.54,-46.79 21.58,-46.69 21.35,-46.64 20.76,-46.43 20.72,-46.16 20.59,-46.17Z"/></svg>