<svg viewBox="-175.37 -166.69 126.29 164.09" xmlns="http://www.w3.org/2000/svg"><path data-name="Canada" d="M-122.84,-56.37 -122.97,-56.37 -124.91,-57.88 -125.62,-58.56 -127.44,-59.21 -127.99,-60.63 -127.85,-61.62 -129.13,-62.32 -129.31,-63.67 -130.51,-64.90 -130.54,-65.79 -130.54,-65.79 -129.98,-66.63 -130.01,-67.75 -131.71,-68.89 -132.73,-70.99 -133.36,-72.35 -134.27,-73.22 -134.94,-74.01 -135.48,-75.03 -136.48,-74.39 -137.45,-73.30 -138.34,-74.59 -139.04,-75.46 -140.01,-76.01 -141.00,-76.07 -140.99,-88.73 -140.99,-98.60 -140.99,-98.60 -139.12,-97.90 -137.55,-96.55 -136.50,-96.29 -135.63,-97.46 -134.41,-98.35 -132.93,-98.00 -131.43,-99.27 -129.79,-100.00 -129.11,-98.79 -128.36,-99.47 -128.14,-100.86 -127.45,-100.54 -125.76,-97.93 -124.42,-99.90 -124.29,-97.70 -123.06,-98.17 -122.68,-99.01 -121.47,-98.84 -119.94,-97.64 -117.60,-96.61 -116.23,-96.14 -115.25,-96.31 -113.90,-94.92 -115.30,-93.59 -113.50,-93.02 -110.80,-93.33 -109.95,-93.80 -108.88,-92.22 -107.79,-93.55 -108.81,-94.68 -108.17,-95.62 -106.95,-95.74 -106.15,-96.02 -105.34,-95.36 -104.34,-93.90 -103.22,-94.11 -101.45,-92.91 -99.90,-93.33 -98.44,-93.27 -98.56,-94.93 -97.67,-95.41 -96.12,-94.49 -96.13,-91.99 -95.49,-94.09 -94.69,-94.02 -94.23,-96.77 -95.30,-98.52 -96.47,-99.69 -96.39,-103.03 -95.21,-105.32 -93.89,-104.81 -92.88,-103.42 -91.52,-99.99 -92.41,-98.56 -90.55,-97.98 -90.55,-95.13 -89.22,-97.30 -88.02,-95.51 -88.32,-93.51 -87.35,-91.74 -86.31,-93.64 -85.58,-95.98 -85.52,-99.09 -84.10,-98.87 -82.62,-98.44 -81.28,-97.03 -81.22,-95.65 -81.96,-94.20 -81.26,-92.78 -81.39,-91.52 -83.34,-89.75 -84.74,-89.36 -85.77,-90.11 -86.07,-88.86 -87.03,-86.82 -87.32,-85.78 -88.48,-84.22 -89.91,-84.07 -90.70,-83.11 -90.77,-81.66 -91.93,-81.39 -93.16,-79.64 -94.24,-77.28 -94.63,-75.68 -94.68,-73.39 -93.22,-73.06 -92.76,-71.28 -92.30,-69.87 -90.90,-70.24 -89.04,-69.44 -88.04,-68.75 -87.32,-67.90 -86.07,-67.41 -85.01,-66.66 -83.36,-66.56 -82.27,-66.39 -82.44,-64.89 -82.13,-63.19 -81.40,-61.34 -79.91,-59.81 -79.14,-60.33 -78.60,-62.01 -79.12,-64.65 -79.83,-65.56 -78.23,-66.37 -77.10,-67.61 -76.54,-68.86 -76.62,-70.08 -77.30,-71.67 -78.52,-73.11 -77.34,-75.16 -77.77,-76.99 -78.11,-80.27 -77.41,-80.77 -75.70,-80.18 -74.67,-79.97 -73.84,-80.54 -72.91,-79.81 -71.68,-78.58 -71.37,-77.77 -69.59,-77.61 -69.62,-75.90 -69.29,-73.40 -68.37,-73.10 -67.65,-71.97 -66.20,-73.04 -65.25,-75.20 -64.58,-76.13 -63.80,-74.35 -62.50,-71.89 -61.40,-69.65 -61.80,-68.51 -60.47,-67.50 -59.57,-66.49 -57.98,-66.04 -57.33,-65.48 -56.94,-64.04 -56.16,-63.81 -55.76,-63.18 -55.68,-61.33 -56.41,-60.72 -57.13,-60.15 -58.77,-59.58 -60.03,-58.29 -61.72,-58.03 -63.86,-58.36 -65.36,-58.37 -66.40,-58.26 -67.24,-57.15 -68.51,-56.47 -69.95,-54.48 -71.10,-53.12 -70.26,-53.36 -68.65,-55.31 -66.55,-56.57 -65.06,-56.72 -64.17,-55.98 -65.12,-54.96 -64.80,-53.37 -64.47,-52.27 -63.17,-51.55 -61.52,-51.76 -60.52,-53.39 -60.45,-52.33 -59.80,-51.81 -61.04,-50.87 -63.25,-50.03 -64.25,-49.47 -65.36,-48.47 -66.12,-48.57 -66.16,-49.75 -64.43,-50.91 -66.03,-50.87 -67.14,-50.69 -67.79,-51.50 -67.79,-53.48 -68.23,-53.90 -68.91,-53.65 -69.24,-54.04 -70.00,-52.93 -70.31,-51.80 -70.66,-51.15 -71.08,-50.93 -71.41,-50.86 -71.51,-50.51 -73.35,-50.51 -74.87,-50.50 -75.32,-50.24 -76.38,-49.23 -76.50,-49.12 -76.82,-48.58 -77.74,-48.58 -78.72,-48.58 -79.17,-48.36 -79.01,-48.09 -78.92,-47.67 -78.94,-47.53 -80.25,-46.86 -81.28,-46.64 -82.44,-45.93 -82.69,-45.93 -83.03,-46.14 -83.14,-46.33 -83.12,-46.47 -82.90,-46.94 -82.43,-47.69 -82.14,-48.50 -82.34,-49.71 -82.55,-50.99 -83.59,-51.66 -83.47,-51.92 -83.62,-52.09 -83.89,-52.09 -84.09,-52.32 -84.14,-52.67 -84.34,-52.52 -84.60,-52.56 -84.54,-52.71 -84.78,-52.85 -84.88,-53.23 -85.65,-53.70 -86.46,-54.19 -87.44,-54.77 -88.38,-55.31 -89.27,-54.89 -89.60,-54.87 -90.83,-55.26 -91.64,-55.07 -92.61,-55.53 -93.63,-55.77 -94.33,-55.87 -94.64,-56.12 -94.82,-56.96 -95.16,-56.96 -95.16,-56.37 -97.23,-56.37 -100.65,-56.37 -104.05,-56.37 -107.05,-56.37 -110.05,-56.37 -113.00,-56.37 -116.05,-56.37 -117.03,-56.37 -120.00,-56.37 -122.84,-56.37ZM-83.99,-80.55 -83.25,-81.56 -81.88,-81.54 -81.90,-81.12 -83.07,-79.92 -83.77,-79.97 -83.99,-80.55ZM-79.78,-108.24 -80.88,-110.06 -80.83,-111.33 -80.35,-111.56 -78.06,-111.18 -76.34,-109.26 -76.25,-108.32 -77.31,-108.42 -78.39,-108.49 -79.49,-108.03 -79.78,-108.24ZM-80.32,-79.77 -79.93,-80.41 -79.52,-80.36 -79.27,-79.92 -79.66,-78.81 -80.10,-78.99 -80.36,-79.62 -80.32,-79.77ZM-93.61,-116.10 -94.16,-114.62 -95.61,-114.90 -96.82,-115.89 -96.29,-117.65 -94.85,-118.73 -93.98,-117.33 -93.61,-116.10ZM-93.84,-126.81 -94.30,-126.68 -96.17,-126.97 -96.44,-128.29 -94.42,-128.22 -93.72,-127.34 -93.84,-126.81ZM-96.75,-132.88 -95.56,-131.12 -95.83,-129.35 -97.31,-128.36 -98.12,-129.48 -98.55,-131.32 -98.63,-133.43 -97.34,-133.22 -96.75,-132.88ZM-88.15,-113.87 -89.76,-114.33 -92.42,-115.55 -92.77,-117.69 -92.89,-119.68 -93.89,-121.50 -95.96,-122.02 -97.12,-123.36 -96.75,-125.18 -94.68,-124.89 -93.57,-123.47 -91.61,-123.48 -90.74,-122.06 -90.97,-120.47 -89.82,-119.54 -89.19,-118.58 -87.84,-118.40 -86.38,-118.07 -84.79,-118.94 -82.75,-119.28 -81.13,-119.00 -80.06,-117.49 -79.83,-115.88 -80.46,-114.86 -81.95,-114.06 -83.23,-114.51 -86.10,-113.94 -88.15,-113.87ZM-111.26,-129.82 -109.85,-129.06 -110.19,-127.64 -112.05,-126.30 -113.53,-127.80 -112.72,-129.32 -111.26,-129.82ZM-110.96,-133.08 -109.66,-132.05 -110.88,-131.07 -112.54,-131.07 -112.53,-131.79 -111.50,-133.31 -110.96,-133.08ZM-55.60,-59.99 -56.13,-58.98 -56.80,-57.62 -56.14,-58.14 -55.47,-57.81 -55.82,-57.27 -54.94,-56.85 -54.47,-57.22 -53.48,-56.75 -53.79,-55.64 -53.09,-55.89 -52.96,-55.09 -52.65,-54.17 -53.07,-52.88 -53.52,-52.82 -54.18,-53.10 -53.96,-54.30 -54.24,-54.49 -55.40,-53.21 -56.00,-53.26 -55.29,-53.95 -56.25,-54.31 -57.33,-54.22 -59.27,-54.27 -59.42,-54.71 -58.80,-55.24 -59.23,-55.64 -58.39,-56.56 -57.36,-59.03 -56.74,-59.94 -55.87,-60.49 -55.41,-60.42 -55.60,-59.99ZM-83.88,-86.57 -82.79,-85.76 -81.64,-85.04 -81.55,-83.94 -80.82,-84.12 -80.10,-83.37 -80.99,-82.66 -82.55,-83.20 -83.11,-84.22 -84.10,-83.02 -85.52,-81.86 -85.87,-83.17 -87.22,-82.95 -86.35,-84.07 -86.22,-85.90 -85.88,-88.09 -85.16,-87.89 -84.98,-86.83 -84.46,-87.20 -83.88,-86.57ZM-78.77,-106.73 -77.82,-108.06 -75.61,-106.37 -74.23,-104.83 -74.10,-103.45 -72.24,-104.16 -71.20,-102.18 -68.79,-100.99 -67.91,-99.79 -66.97,-97.10 -68.81,-95.80 -66.45,-94.03 -64.86,-93.44 -63.42,-91.05 -61.85,-90.88 -62.16,-89.12 -63.92,-86.31 -65.15,-87.33 -66.72,-89.69 -68.02,-89.37 -68.14,-87.97 -67.09,-86.57 -65.73,-85.49 -65.32,-84.87 -64.67,-82.62 -65.01,-81.04 -66.28,-81.63 -68.78,-83.41 -67.37,-81.49 -66.33,-80.18 -66.17,-79.44 -68.88,-80.29 -71.02,-81.55 -72.24,-82.63 -71.89,-83.26 -73.38,-84.43 -74.83,-85.56 -74.82,-84.88 -77.71,-84.52 -78.56,-85.31 -77.90,-87.05 -76.02,-87.09 -73.96,-87.40 -74.29,-88.26 -73.94,-89.49 -72.65,-91.97 -72.93,-93.12 -73.31,-94.03 -74.84,-95.35 -76.87,-96.28 -76.23,-96.99 -77.29,-98.76 -78.17,-98.93 -78.96,-99.92 -79.49,-99.06 -81.31,-98.69 -84.94,-99.33 -87.06,-100.20 -88.68,-100.64 -89.51,-101.70 -88.47,-103.10 -89.89,-103.12 -90.21,-106.35 -89.44,-109.35 -88.41,-110.78 -85.83,-111.72 -86.56,-109.45 -85.77,-107.33 -84.85,-110.08 -82.32,-111.53 -80.60,-107.95 -80.75,-105.78 -78.77,-106.73ZM-94.50,-112.92 -92.42,-112.79 -90.51,-111.91 -92.00,-108.79 -93.20,-108.13 -94.27,-105.66 -95.41,-105.78 -96.03,-108.70 -96.02,-110.42 -95.50,-111.93 -94.50,-112.92ZM-122.85,-120.65 -122.85,-120.65 -121.16,-123.85 -119.10,-126.78 -117.57,-126.71 -116.20,-127.39 -116.34,-123.91 -117.11,-122.40 -118.04,-122.19 -119.90,-120.39 -121.50,-119.76 -122.85,-120.65ZM-132.71,-64.48 -131.75,-64.62 -132.05,-62.70 -131.18,-61.38 -131.58,-61.38 -132.18,-62.13 -132.55,-62.90 -133.05,-63.42 -133.24,-64.16 -133.18,-64.70 -132.71,-64.48ZM-105.49,-135.70 -103.53,-134.97 -100.83,-133.06 -100.06,-130.66 -99.67,-128.63 -101.30,-129.17 -102.95,-130.75 -105.18,-130.93 -104.21,-132.43 -105.42,-133.67 -105.49,-135.70ZM-123.51,-55.62 -124.01,-55.42 -125.66,-56.10 -125.95,-56.64 -126.85,-57.18 -127.03,-57.62 -128.06,-57.90 -128.44,-58.75 -128.36,-59.12 -127.31,-58.77 -126.70,-58.53 -125.76,-58.37 -125.42,-57.83 -124.92,-57.10 -123.92,-56.46 -123.51,-55.62ZM-121.54,-114.08 -120.11,-113.31 -117.56,-113.11 -116.58,-112.05 -115.51,-110.55 -116.77,-109.67 -119.22,-107.29 -120.46,-105.00 -120.46,-103.62 -123.09,-102.13 -123.62,-103.48 -125.93,-105.16 -125.50,-106.53 -124.81,-108.98 -123.94,-111.28 -124.92,-113.50 -121.54,-114.08ZM-107.82,-119.53 -106.93,-120.22 -105.88,-120.04 -105.70,-118.05 -106.31,-116.19 -109.70,-115.60 -112.22,-113.96 -113.74,-113.88 -113.87,-115.10 -111.79,-116.80 -116.31,-116.34 -117.71,-117.04 -116.35,-121.00 -115.40,-122.18 -112.59,-120.75 -110.81,-118.33 -109.07,-118.03 -110.50,-121.97 -109.58,-123.55 -108.55,-123.04 -108.21,-121.01 -107.82,-119.53ZM-106.52,-109.17 -105.40,-107.80 -104.77,-104.61 -104.46,-102.41 -102.79,-100.90 -100.98,-99.50 -101.09,-98.23 -102.73,-98.00 -102.09,-96.91 -102.43,-95.89 -104.24,-96.33 -105.96,-97.08 -107.12,-96.91 -109.00,-95.97 -111.53,-95.55 -113.31,-95.29 -113.85,-96.60 -115.22,-97.36 -116.11,-97.05 -117.34,-99.32 -116.67,-99.63 -115.13,-100.13 -113.72,-100.00 -112.42,-100.51 -114.35,-101.21 -116.49,-100.97 -117.90,-101.03 -118.43,-102.15 -116.11,-103.39 -117.66,-103.34 -119.40,-104.17 -118.56,-106.59 -117.87,-107.91 -115.19,-109.99 -114.17,-109.32 -114.67,-107.73 -112.44,-108.75 -111.05,-107.06 -109.92,-108.77 -109.01,-107.67 -108.19,-104.46 -107.69,-105.79 -108.40,-109.21 -107.52,-109.72 -106.52,-109.17ZM-100.44,-107.91 -101.54,-110.15 -100.36,-111.87 -99.16,-111.11 -97.38,-111.56 -97.12,-110.54 -98.05,-108.87 -96.54,-107.42 -96.72,-104.49 -98.36,-103.27 -99.32,-103.53 -100.01,-104.74 -102.50,-107.25 -102.48,-108.33 -100.44,-107.91ZM-106.60,-111.00 -105.26,-111.14 -104.50,-110.36 -105.38,-108.09 -106.94,-110.50 -106.60,-111.00ZM-98.50,-123.22 -97.74,-121.24 -97.70,-119.12 -98.16,-116.17 -99.81,-115.78 -100.88,-116.39 -100.86,-118.70 -102.50,-118.39 -102.57,-121.58 -101.49,-121.44 -99.98,-122.90 -98.58,-122.65 -98.50,-123.22ZM-96.02,-143.16 -95.32,-145.06 -94.30,-145.51 -94.74,-146.99 -92.41,-147.32 -91.13,-143.91 -89.45,-142.60 -87.81,-141.46 -87.02,-137.66 -85.81,-135.89 -87.19,-134.30 -89.04,-130.47 -90.80,-130.12 -92.88,-130.75 -93.95,-132.80 -93.94,-134.69 -93.15,-136.12 -94.97,-136.08 -96.08,-137.91 -96.71,-140.50 -96.02,-143.16ZM-91.59,-151.67 -90.10,-153.04 -88.93,-153.27 -86.97,-154.47 -85.50,-157.31 -84.26,-156.90 -83.18,-154.77 -82.42,-158.96 -81.10,-160.26 -79.31,-161.18 -76.25,-161.53 -75.72,-160.62 -72.83,-162.04 -70.67,-161.51 -68.50,-160.98 -65.83,-160.33 -63.68,-159.28 -61.85,-157.13 -61.89,-155.08 -64.33,-151.91 -66.75,-150.48 -67.66,-148.95 -65.48,-148.98 -67.84,-145.02 -69.47,-143.25 -71.18,-138.45 -73.24,-137.52 -73.88,-136.39 -76.91,-135.81 -75.53,-135.14 -76.22,-134.20 -75.39,-131.66 -76.34,-129.96 -77.89,-128.60 -78.36,-126.76 -79.76,-125.39 -79.62,-124.38 -77.91,-124.55 -77.89,-123.47 -80.56,-120.91 -83.17,-122.08 -86.11,-121.42 -87.60,-121.93 -89.49,-122.15 -89.62,-124.24 -87.77,-125.25 -88.26,-128.60 -87.65,-128.93 -84.98,-126.90 -86.34,-129.95 -87.96,-130.89 -87.15,-132.84 -85.38,-134.08 -85.09,-135.93 -86.51,-138.09 -86.93,-141.05 -84.20,-140.80 -83.41,-140.17 -81.85,-142.32 -84.10,-143.03 -87.60,-142.64 -89.37,-144.74 -90.20,-147.34 -91.37,-149.30 -91.59,-151.67ZM-75.22,-92.38 -75.87,-91.62 -76.99,-91.49 -77.24,-92.76 -76.81,-94.24 -75.90,-94.62 -75.11,-93.87 -75.10,-92.74 -75.22,-92.38ZM-96.26,-97.96 -95.65,-96.88 -96.27,-95.90 -97.62,-96.74 -98.43,-96.44 -99.80,-97.70 -98.92,-98.59 -98.22,-99.85 -97.16,-99.02 -96.56,-98.50 -96.26,-97.96ZM-64.52,-57.71 -64.17,-57.84 -62.86,-57.45 -61.84,-56.81 -61.81,-56.53 -62.29,-56.50 -63.59,-56.98 -64.52,-57.71ZM-64.01,-53.43 -63.66,-52.72 -62.94,-52.53 -62.01,-52.57 -62.50,-51.97 -62.87,-51.88 -64.14,-52.49 -64.39,-52.98 -64.01,-53.43Z"/><path data-name="United States" d="M-122.84,-56.37 -120.00,-56.37 -117.03,-56.37 -116.05,-56.37 -113.00,-56.37 -110.05,-56.37 -107.05,-56.37 -104.05,-56.37 -100.65,-56.37 -97.23,-56.37 -95.16,-56.37 -95.16,-56.96 -94.82,-56.96 -94.64,-56.12 -94.33,-55.87 -93.63,-55.77 -92.61,-55.53 -91.64,-55.07 -90.83,-55.26 -89.60,-54.87 -89.27,-54.89 -88.38,-55.31 -87.44,-54.77 -86.46,-54.19 -85.65,-53.70 -84.88,-53.23 -84.78,-52.85 -84.54,-52.71 -84.60,-52.56 -84.34,-52.52 -84.14,-52.67 -84.09,-52.32 -83.89,-52.09 -83.62,-52.09 -83.47,-51.92 -83.59,-51.66 -82.55,-50.99 -82.34,-49.71 -82.14,-48.50 -82.43,-47.69 -82.90,-46.94 -83.12,-46.47 -83.14,-46.33 -83.03,-46.14 -82.69,-45.93 -82.44,-45.93 -81.28,-46.64 -80.25,-46.86 -78.94,-47.53 -78.92,-47.67 -79.01,-48.09 -79.17,-48.36 -78.72,-48.58 -77.74,-48.58 -76.82,-48.58 -76.50,-49.12 -76.38,-49.23 -75.32,-50.24 -74.87,-50.50 -73.35,-50.51 -71.51,-50.51 -71.41,-50.86 -71.08,-50.93 -70.66,-51.15 -70.31,-51.80 -70.00,-52.93 -69.24,-54.04 -68.91,-53.65 -68.23,-53.90 -67.79,-53.48 -67.79,-51.50 -67.14,-50.69 -66.96,-50.23 -68.03,-49.55 -69.06,-49.07 -70.12,-48.66 -70.65,-47.84 -70.81,-47.53 -70.83,-46.81 -70.50,-46.10 -70.08,-46.07 -70.19,-46.56 -69.88,-46.26 -69.97,-45.88 -70.64,-45.66 -71.12,-45.68 -71.86,-45.45 -72.30,-45.39 -72.88,-45.32 -73.71,-44.94 -72.24,-45.19 -71.94,-44.93 -73.34,-44.54 -73.98,-44.54 -73.95,-44.70 -74.26,-44.33 -73.96,-44.27 -74.18,-43.33 -74.91,-42.34 -74.98,-42.67 -75.20,-42.74 -75.53,-43.06 -75.32,-42.36 -75.07,-42.14 -75.06,-41.65 -75.38,-41.16 -75.94,-40.15 -76.03,-40.20 -75.72,-41.06 -76.23,-41.54 -76.35,-42.61 -76.54,-42.05 -76.33,-41.24 -76.99,-41.44 -76.30,-41.03 -76.26,-39.84 -75.97,-39.75 -75.87,-39.32 -75.73,-38.08 -76.36,-37.17 -77.40,-36.81 -78.05,-36.10 -78.55,-36.02 -79.06,-35.58 -79.20,-35.18 -80.30,-34.41 -80.86,-33.85 -81.34,-33.15 -81.49,-32.32 -81.31,-31.51 -80.98,-30.53 -80.54,-29.72 -80.53,-29.23 -80.06,-27.92 -80.09,-27.17 -80.13,-26.74 -80.38,-26.06 -80.68,-25.92 -81.17,-26.06 -81.33,-26.54 -81.71,-26.80 -82.24,-27.76 -82.71,-28.62 -82.86,-29.06 -82.65,-29.81 -82.93,-30.44 -83.71,-31.40 -84.10,-31.58 -85.11,-31.05 -85.29,-31.11 -85.77,-31.65 -86.40,-31.94 -87.53,-31.79 -88.42,-31.92 -89.18,-31.84 -89.59,-31.66 -89.41,-31.35 -89.43,-30.88 -89.22,-30.66 -89.41,-30.51 -89.78,-30.68 -90.15,-30.46 -90.88,-30.49 -91.63,-31.10 -92.50,-30.96 -93.23,-31.22 -93.85,-31.14 -94.69,-30.87 -95.60,-30.03 -96.59,-29.53 -97.14,-28.99 -97.37,-28.49 -97.38,-27.71 -97.33,-27.18 -97.14,-26.80 -97.53,-26.76 -98.24,-27.01 -99.02,-27.35 -99.30,-27.88 -99.52,-28.67 -100.11,-29.31 -100.46,-29.98 -100.96,-30.76 -101.66,-31.22 -102.48,-31.20 -103.11,-30.29 -103.94,-30.63 -104.46,-30.98 -104.71,-31.61 -105.04,-32.22 -105.63,-32.73 -106.14,-33.10 -106.51,-33.52 -108.24,-33.52 -108.24,-33.03 -109.03,-33.03 -111.02,-33.02 -113.30,-33.85 -114.81,-34.43 -114.72,-34.66 -115.99,-34.53 -117.13,-34.44 -117.30,-35.05 -117.94,-35.74 -118.41,-35.88 -118.52,-36.22 -119.08,-36.29 -119.44,-36.61 -120.37,-36.73 -120.62,-36.93 -120.74,-37.60 -121.71,-38.83 -122.55,-40.57 -122.51,-40.86 -122.95,-41.28 -123.73,-42.35 -123.87,-43.41 -124.40,-44.12 -124.18,-45.22 -124.21,-46.36 -124.53,-47.40 -124.14,-48.69 -124.02,-49.96 -123.90,-51.24 -124.08,-53.18 -124.40,-54.44 -124.69,-55.13 -124.57,-55.43 -123.12,-54.92 -122.59,-53.52 -122.34,-53.91 -122.50,-55.13 -122.84,-56.37ZM-155.40,-20.50 -155.22,-20.41 -155.06,-20.27 -154.81,-19.90 -154.83,-19.84 -155.22,-19.61 -155.54,-19.45 -155.69,-19.27 -155.94,-19.42 -155.91,-19.72 -156.07,-20.10 -156.02,-20.22 -155.85,-20.39 -155.92,-20.60 -155.86,-20.70 -155.79,-20.68 -155.40,-20.50ZM-156.00,-21.23 -156.08,-21.11 -156.41,-21.03 -156.59,-21.25 -156.70,-21.34 -156.71,-21.41 -156.61,-21.50 -156.26,-21.40 -156.00,-21.23ZM-156.76,-21.68 -156.79,-21.56 -157.33,-21.59 -157.25,-21.72 -156.76,-21.68ZM-158.03,-22.26 -157.94,-22.19 -157.65,-21.83 -157.71,-21.77 -157.78,-21.78 -158.13,-21.82 -158.25,-22.07 -158.29,-22.11 -158.03,-22.26ZM-159.37,-22.79 -159.35,-22.54 -159.46,-22.44 -159.80,-22.63 -159.75,-22.71 -159.60,-22.82 -159.37,-22.79ZM-166.47,-76.23 -165.67,-76.05 -165.58,-75.28 -166.19,-74.97 -166.85,-75.34 -167.46,-75.88 -166.47,-76.23ZM-153.23,-71.51 -152.56,-71.39 -152.14,-70.80 -153.01,-69.92 -154.01,-69.22 -154.52,-69.70 -154.67,-70.56 -153.76,-71.23 -153.23,-71.51ZM-140.99,-98.60 -140.99,-98.60 -140.99,-88.73 -141.00,-76.07 -140.01,-76.01 -139.04,-75.46 -138.34,-74.59 -137.45,-73.30 -136.48,-74.39 -135.48,-75.03 -134.94,-74.01 -134.27,-73.22 -133.36,-72.35 -132.73,-70.99 -131.71,-68.89 -130.01,-67.75 -129.98,-66.63 -130.54,-65.79 -130.54,-65.79 -130.54,-65.79 -131.09,-66.45 -131.97,-67.01 -132.25,-68.56 -133.54,-70.04 -134.08,-71.80 -135.04,-71.93 -136.63,-71.97 -137.80,-72.52 -139.87,-74.54 -140.83,-74.91 -142.57,-75.63 -143.96,-75.45 -145.93,-76.38 -147.11,-77.25 -148.22,-76.82 -148.02,-75.41 -148.57,-75.28 -149.73,-74.87 -150.61,-74.20 -151.72,-73.79 -151.86,-74.95 -151.41,-76.92 -150.35,-77.56 -150.62,-78.08 -151.90,-76.93 -152.58,-75.58 -154.02,-74.17 -153.29,-73.22 -154.23,-71.85 -155.31,-71.06 -156.31,-70.49 -156.56,-69.67 -158.12,-68.73 -158.43,-67.89 -159.60,-67.13 -160.29,-67.26 -161.22,-66.77 -162.24,-66.17 -163.07,-65.59 -164.79,-65.10 -164.94,-65.39 -163.85,-66.20 -162.87,-66.74 -161.80,-67.71 -160.56,-67.91 -160.07,-68.65 -158.68,-69.74 -158.46,-70.11 -157.72,-70.77 -157.55,-72.19 -157.04,-73.33 -158.19,-72.74 -158.52,-73.07 -159.06,-72.38 -159.71,-73.35 -159.98,-72.66 -160.36,-73.62 -161.36,-72.85 -161.97,-72.85 -162.05,-74.01 -161.87,-74.73 -162.52,-75.44 -163.82,-75.05 -164.66,-75.99 -165.35,-76.48 -165.35,-77.64 -166.12,-78.53 -165.73,-79.74 -164.92,-80.95 -164.56,-82.07 -163.75,-82.23 -163.07,-81.88 -162.26,-82.95 -161.53,-82.76 -160.77,-83.46 -160.96,-84.50 -161.52,-84.92 -160.78,-85.82 -161.39,-85.79 -162.45,-85.28 -162.76,-84.77 -163.55,-85.28 -164.96,-85.02 -166.43,-85.58 -166.85,-86.52 -168.11,-87.92 -166.71,-88.94 -164.47,-90.16 -163.65,-90.16 -163.79,-88.92 -161.68,-89.01 -162.49,-90.56 -163.72,-91.53 -164.43,-92.83 -165.39,-93.96 -166.76,-94.81 -166.20,-96.25 -164.43,-96.34 -163.17,-97.62 -162.93,-99.02 -161.91,-100.41 -160.93,-100.76 -159.04,-102.10 -158.12,-101.89 -156.58,-103.54 -155.07,-102.88 -154.34,-101.50 -153.90,-102.09 -152.21,-101.91 -152.27,-101.21 -150.74,-100.70 -149.72,-101.00 -147.61,-100.06 -145.69,-99.78 -144.92,-99.40 -143.59,-99.88 -142.07,-99.00 -140.99,-98.60 -140.99,-98.60ZM-171.73,-83.50 -171.11,-83.07 -170.49,-83.30 -169.68,-82.71 -168.69,-82.41 -168.77,-82.17 -169.53,-81.70 -170.29,-82.18 -170.67,-82.58 -171.55,-82.45 -171.79,-82.65 -171.73,-83.50Z"/><path data-name="Haiti" d="M-71.71,-20.12 -71.62,-19.54 -71.70,-19.13 -71.95,-18.95 -71.69,-18.64 -71.71,-18.35 -72.37,-18.53 -72.84,-18.46 -73.45,-18.53 -73.92,-18.34 -74.46,-18.66 -74.37,-19.00 -73.45,-18.86 -72.69,-18.77 -72.33,-19.01 -72.79,-19.47 -72.78,-19.87 -73.42,-20.04 -73.19,-20.33 -72.58,-20.28 -71.71,-20.12Z"/><path data-name="Dominican Rep." d="M-71.71,-18.35 -71.69,-18.64 -71.95,-18.95 -71.70,-19.13 -71.62,-19.54 -71.71,-20.12 -71.59,-20.30 -70.81,-20.29 -70.21,-20.02 -69.95,-20.04 -69.77,-19.67 -69.22,-19.69 -69.25,-19.37 -68.81,-19.34 -68.32,-18.95 -68.69,-18.52 -69.16,-18.75 -69.62,-18.70 -69.95,-18.75 -70.13,-18.56 -70.52,-18.50 -70.67,-18.75 -71.00,-18.60 -71.40,-17.88 -71.66,-18.05 -71.71,-18.35Z"/><path data-name="Bahamas" d="M-78.98,-27.82 -78.51,-27.91 -77.85,-27.88 -77.82,-27.59 -78.91,-27.41 -78.98,-27.82ZM-77.79,-28.10 -77.00,-27.60 -77.17,-26.81 -77.36,-26.95 -77.34,-27.53 -77.79,-27.97 -77.79,-28.10ZM-78.19,-26.07 -77.89,-26.02 -77.54,-25.11 -77.53,-24.47 -77.78,-24.42 -78.03,-25.05 -78.41,-25.37 -78.19,-26.07Z"/><path data-name="Mexico" d="M-117.13,-34.44 -115.99,-34.53 -114.72,-34.66 -114.81,-34.43 -113.30,-33.85 -111.02,-33.02 -109.03,-33.03 -108.24,-33.03 -108.24,-33.52 -106.51,-33.52 -106.14,-33.10 -105.63,-32.73 -105.04,-32.22 -104.71,-31.61 -104.46,-30.98 -103.94,-30.63 -103.11,-30.29 -102.48,-31.20 -101.66,-31.22 -100.96,-30.76 -100.46,-29.98 -100.11,-29.31 -99.52,-28.67 -99.30,-27.88 -99.02,-27.35 -98.24,-27.01 -97.53,-26.76 -97.14,-26.80 -97.53,-25.82 -97.70,-25.03 -97.78,-23.57 -97.87,-23.04 -97.70,-22.45 -97.39,-21.93 -97.19,-21.10 -96.53,-20.30 -96.29,-19.70 -95.90,-19.18 -94.84,-18.90 -94.43,-18.46 -93.55,-18.75 -92.79,-18.86 -92.04,-19.05 -91.41,-19.23 -90.77,-19.66 -90.53,-20.28 -90.45,-21.17 -90.28,-21.49 -89.60,-21.77 -88.54,-22.02 -87.66,-21.98 -87.05,-22.07 -86.81,-21.84 -86.85,-21.33 -87.38,-20.69 -87.62,-20.04 -87.44,-19.86 -87.59,-19.40 -87.84,-18.58 -88.09,-18.85 -88.30,-18.83 -88.49,-18.82 -88.85,-18.18 -89.03,-18.31 -89.15,-18.26 -89.14,-18.10 -90.07,-18.11 -91.00,-18.11 -91.00,-17.52 -91.45,-17.52 -91.08,-17.17 -90.71,-16.93 -90.60,-16.70 -90.44,-16.64 -90.46,-16.28 -91.75,-16.28 -92.23,-15.43 -92.09,-15.24 -92.20,-15.00 -92.23,-14.70 -93.36,-15.81 -93.88,-16.15 -94.69,-16.42 -95.25,-16.35 -96.05,-15.95 -96.56,-15.85 -97.26,-16.13 -98.01,-16.32 -98.95,-16.80 -99.70,-16.95 -100.83,-17.43 -101.67,-17.93 -101.92,-18.22 -102.48,-18.28 -103.50,-18.61 -103.92,-19.09 -104.99,-19.69 -105.49,-20.36 -105.73,-20.88 -105.40,-20.99 -105.50,-21.29 -105.27,-21.57 -105.27,-21.94 -105.60,-22.42 -105.69,-22.85 -106.03,-23.40 -106.91,-24.48 -107.92,-25.34 -108.40,-26.02 -109.26,-26.48 -109.44,-26.75 -109.29,-27.43 -109.80,-27.70 -110.39,-28.24 -110.64,-29.03 -111.18,-29.12 -111.76,-29.72 -112.23,-30.27 -112.27,-30.63 -112.81,-31.50 -113.16,-32.39 -113.15,-32.83 -113.87,-33.30 -114.21,-33.25 -114.78,-33.57 -114.94,-33.09 -114.77,-32.53 -114.67,-31.66 -114.33,-31.19 -113.59,-30.39 -113.42,-30.13 -113.27,-30.04 -113.14,-29.65 -112.96,-29.67 -112.76,-28.94 -112.46,-28.65 -112.24,-28.25 -111.62,-27.68 -111.28,-26.64 -110.99,-26.16 -110.71,-25.64 -110.66,-25.06 -110.17,-25.03 -109.77,-24.53 -109.41,-24.04 -109.43,-23.85 -109.85,-23.45 -110.03,-23.45 -110.30,-24.11 -110.95,-24.74 -111.67,-25.27 -112.18,-25.54 -112.15,-26.35 -112.30,-26.95 -112.78,-27.30 -113.46,-27.80 -113.60,-27.65 -113.85,-27.95 -114.47,-28.22 -115.06,-28.87 -114.98,-28.96 -114.57,-28.89 -114.20,-29.32 -114.16,-29.83 -114.93,-30.64 -115.52,-30.96 -115.89,-31.68 -116.26,-32.44 -116.72,-33.38 -117.13,-34.44Z"/><path data-name="Panama" d="M-77.35,-8.70 -77.47,-8.56 -77.24,-7.96 -77.43,-7.66 -77.75,-7.73 -77.88,-7.24 -78.21,-7.53 -78.43,-8.08 -78.18,-8.35 -78.44,-8.42 -78.62,-8.75 -79.12,-9.03 -79.56,-8.97 -79.76,-8.62 -80.16,-8.36 -80.38,-8.33 -80.48,-8.12 -80.00,-7.57 -80.28,-7.44 -80.42,-7.29 -80.89,-7.24 -81.06,-7.84 -81.19,-7.67 -81.52,-7.73 -81.72,-8.14 -82.13,-8.20 -82.39,-8.32 -82.82,-8.32 -82.85,-8.10 -82.97,-8.25 -82.91,-8.45 -82.83,-8.66 -82.87,-8.84 -82.72,-8.96 -82.93,-9.11 -82.93,-9.52 -82.55,-9.61 -82.19,-9.25 -82.21,-9.03 -81.81,-8.99 -81.71,-9.07 -81.44,-8.82 -80.95,-8.89 -80.52,-9.15 -79.91,-9.35 -79.57,-9.66 -79.02,-9.60 -79.06,-9.50 -78.50,-9.46 -78.06,-9.29 -77.73,-8.98 -77.35,-8.70Z"/><path data-name="Costa Rica" d="M-82.55,-9.61 -82.93,-9.52 -82.93,-9.11 -82.72,-8.96 -82.87,-8.84 -82.83,-8.66 -82.91,-8.45 -82.97,-8.25 -83.51,-8.48 -83.71,-8.69 -83.60,-8.87 -83.63,-9.09 -83.91,-9.33 -84.30,-9.53 -84.65,-9.66 -84.71,-9.96 -84.98,-10.14 -84.91,-9.84 -85.11,-9.60 -85.34,-9.88 -85.66,-9.98 -85.80,-10.19 -85.79,-10.50 -85.66,-10.82 -85.94,-10.96 -85.71,-11.16 -85.56,-11.29 -84.90,-11.02 -84.67,-11.15 -84.36,-11.07 -84.19,-10.86 -83.90,-10.79 -83.66,-11.01 -83.40,-10.45 -83.02,-10.04 -82.55,-9.61Z"/><path data-name="Nicaragua" d="M-83.66,-11.01 -83.90,-10.79 -84.19,-10.86 -84.36,-11.07 -84.67,-11.15 -84.90,-11.02 -85.56,-11.29 -85.71,-11.16 -86.06,-11.48 -86.53,-11.89 -86.75,-12.24 -87.17,-12.56 -87.67,-13.02 -87.56,-13.18 -87.39,-13.02 -87.32,-13.10 -87.01,-13.14 -86.88,-13.37 -86.73,-13.38 -86.76,-13.89 -86.52,-13.91 -86.31,-13.91 -86.10,-14.18 -85.80,-13.97 -85.70,-14.10 -85.51,-14.22 -85.17,-14.51 -85.15,-14.72 -85.05,-14.71 -84.92,-14.96 -84.82,-14.99 -84.65,-14.83 -84.45,-14.78 -84.23,-14.91 -83.98,-14.92 -83.63,-15.05 -83.49,-15.19 -83.15,-15.17 -83.23,-15.07 -83.28,-14.84 -83.18,-14.46 -83.41,-14.11 -83.52,-13.70 -83.55,-13.24 -83.50,-12.98 -83.47,-12.52 -83.63,-12.42 -83.72,-11.98 -83.65,-11.71 -83.86,-11.45 -83.81,-11.17 -83.66,-11.01Z"/><path data-name="Honduras" d="M-83.15,-15.17 -83.49,-15.19 -83.63,-15.05 -83.98,-14.92 -84.23,-14.91 -84.45,-14.78 -84.65,-14.83 -84.82,-14.99 -84.92,-14.96 -85.05,-14.71 -85.15,-14.72 -85.17,-14.51 -85.51,-14.22 -85.70,-14.10 -85.80,-13.97 -86.10,-14.18 -86.31,-13.91 -86.52,-13.91 -86.76,-13.89 -86.73,-13.38 -86.88,-13.37 -87.01,-13.14 -87.32,-13.10 -87.49,-13.42 -87.79,-13.51 -87.72,-13.92 -87.86,-14.03 -88.07,-14.10 -88.50,-13.98 -88.54,-14.12 -88.84,-14.29 -89.06,-14.49 -89.35,-14.58 -89.15,-14.84 -89.23,-15.04 -89.15,-15.24 -88.68,-15.53 -88.23,-15.93 -88.12,-15.89 -87.90,-16.07 -87.62,-16.09 -87.52,-16.00 -87.37,-16.05 -86.90,-15.96 -86.44,-15.99 -86.12,-16.10 -86.00,-16.22 -85.68,-16.16 -85.44,-16.09 -85.18,-16.12 -84.98,-16.21 -84.53,-16.06 -84.37,-16.04 -84.06,-15.85 -83.77,-15.61 -83.41,-15.45 -83.15,-15.17Z"/><path data-name="El Salvador" d="M-89.35,-14.58 -89.06,-14.49 -88.84,-14.29 -88.54,-14.12 -88.50,-13.98 -88.07,-14.10 -87.86,-14.03 -87.72,-13.92 -87.79,-13.51 -87.90,-13.27 -88.48,-13.28 -88.84,-13.38 -89.26,-13.58 -89.81,-13.65 -90.10,-13.87 -90.06,-14.02 -89.72,-14.28 -89.53,-14.39 -89.59,-14.52 -89.35,-14.58Z"/><path data-name="Guatemala" d="M-92.23,-14.70 -92.20,-15.00 -92.09,-15.24 -92.23,-15.43 -91.75,-16.28 -90.46,-16.28 -90.44,-16.64 -90.60,-16.70 -90.71,-16.93 -91.08,-17.17 -91.45,-17.52 -91.00,-17.52 -91.00,-18.11 -90.07,-18.11 -89.14,-18.10 -89.15,-17.27 -89.23,-16.09 -88.93,-16.09 -88.60,-15.91 -88.52,-16.06 -88.23,-15.93 -88.68,-15.53 -89.15,-15.24 -89.23,-15.04 -89.15,-14.84 -89.35,-14.58 -89.59,-14.52 -89.53,-14.39 -89.72,-14.28 -90.06,-14.02 -90.10,-13.87 -90.61,-14.05 -91.23,-14.07 -91.69,-14.27 -92.23,-14.70Z"/><path data-name="Belize" d="M-89.14,-18.10 -89.15,-18.26 -89.03,-18.31 -88.85,-18.18 -88.49,-18.82 -88.30,-18.83 -88.30,-18.68 -88.11,-18.67 -88.12,-18.38 -88.29,-17.93 -88.20,-17.77 -88.30,-17.39 -88.24,-17.29 -88.36,-16.77 -88.55,-16.49 -88.73,-16.46 -88.93,-16.09 -89.23,-16.09 -89.15,-17.27 -89.14,-18.10Z"/><path data-name="Puerto Rico" d="M-66.28,-18.85 -65.77,-18.75 -65.59,-18.54 -65.85,-18.28 -66.60,-18.28 -67.18,-18.25 -67.24,-18.70 -67.10,-18.85 -66.28,-18.85Z"/><path data-name="Jamaica" d="M-77.57,-18.82 -76.90,-18.73 -76.37,-18.47 -76.20,-18.18 -76.90,-18.17 -77.21,-17.99 -77.77,-18.16 -78.34,-18.54 -78.22,-18.78 -77.80,-18.86 -77.57,-18.82Z"/><path data-name="Cuba" d="M-82.27,-23.85 -81.40,-23.77 -80.62,-23.76 -79.68,-23.39 -79.28,-22.99 -78.35,-23.11 -77.99,-22.86 -77.15,-22.19 -76.52,-21.71 -76.19,-21.72 -75.60,-21.50 -75.67,-21.20 -74.93,-21.16 -74.18,-20.72 -74.30,-20.47 -74.96,-20.34 -75.63,-20.28 -76.32,-20.37 -77.76,-20.27 -77.09,-20.86 -77.49,-21.14 -78.14,-21.21 -78.48,-21.52 -78.72,-22.13 -79.28,-22.09 -80.22,-22.38 -80.52,-22.60 -81.82,-22.77 -82.17,-22.98 -81.80,-23.25 -82.78,-23.31 -83.49,-22.74 -83.91,-22.73 -84.05,-22.46 -84.55,-22.35 -84.97,-22.45 -84.45,-22.78 -84.23,-23.17 -83.78,-23.41 -83.27,-23.63 -82.51,-23.73 -82.27,-23.85Z"/><path data-name="Trinidad and Tobago" d="M-61.68,-10.82 -61.10,-10.96 -60.90,-10.92 -60.94,-10.16 -61.77,-10.05 -61.95,-10.14 -61.66,-10.42 -61.68,-10.82Z"/></svg>